<?xml version="1.0" encoding="utf-8"?>
<!-- Generator: Adobe Illustrator 24.3.0, SVG Export Plug-In . SVG Version: 6.00 Build 0)  -->
<svg version="1.1" id="Capa_1" xmlns="http://www.w3.org/2000/svg" xmlns:xlink="http://www.w3.org/1999/xlink" x="0px" y="0px"
	 viewBox="0 0 512 512" style="enable-background:new 0 0 512 512;" xml:space="preserve">
<style type="text/css">
	.st0{fill:#F2F2F2;}
</style>
<g>
	<path class="st0" d="M139.1,345.6c-7.1-7.4-19.5-8.3-27.7-2.1l-0.2-0.1l-18.4,18.4c-4,4-6.2,9.4-6.2,15.1
		c-0.2,11.5,9.9,21.6,21.3,21.3c6.7,0.1,12.6-3.2,17-8.1l14.2-14.2c3-3,5-6.7,5.8-10.7C146.4,358.1,144.2,350.6,139.1,345.6
		L139.1,345.6z"/>
	<path class="st0" d="M88,283.1c-8.3-8.3-21.8-8.3-30.2,0C55.9,285,44,297,41.7,299.2c-19.2,20.8,9.3,49.3,30.2,30.2
		c0,0,14-14,16.1-16.1C96.3,304.9,96.3,291.4,88,283.1z"/>
	<path class="st0" d="M182.7,394.2c-5.7,0-11.1,2.2-15.1,6.3l-16.1,16.1c-0.1,0.1-0.2,0.2-0.2,0.2c-8.1,8-7.9,22.1,0.2,29.9
		c8.3,8.3,21.9,8.3,30.2,0l16.1-16.1C211.2,417.3,201.6,394.1,182.7,394.2L182.7,394.2z"/>
	<path class="st0" d="M325.9,157.5c-32.9,20.8-77.1,16.8-105.7-11.8l-37.3-37.3l46.6-46.6C179.4,5.6,91.4,2.1,38.2,55.7
		c-53.5,53.2-50.1,141,5.9,191c40.8-22.8,90.9,9,87.6,55.5c27,2.9,49.9,27.4,51.1,54.4c25.4-0.5,50.6,18.5,56.8,43.6
		c21.1-5.7,44.8,1.4,59.3,18.1l0.4-0.5c21,12.6,43.2-13.3,27.4-32.1l0-0.1c-0.3-0.3-84.8-84.8-84.8-84.8c6.6-6.6,20-20,26.6-26.6
		l83.8,83.8c20.8,19.2,49.3-9.3,30.2-30.2L298.8,244c6.6-6.6,20-20,26.6-26.6c18.8,18.8,64.5,64.5,83.8,83.8
		c7.9,8.3,22.2,8.3,30.2,0c8.3-8.3,8.3-21.9,0-30.2L325.9,157.5z"/>
	<path class="st0" d="M473.8,55.7c-51-51-134.1-51-185.1,0c-9.9,9.9-43.3,43.3-52.6,52.7l10.7,10.7c18.6,18.6,48.7,18.6,67.3,0
		l13.3-13.3c7.1,7.2,137.1,136.9,140.7,140.8C523.9,196.5,527.2,108.8,473.8,55.7z"/>
	<path class="st0" d="M269.7,442.1c-8.3-8.3-21.8-8.3-30.2,0l-16.1,16.1c-8.3,7.9-8.3,22.2,0,30.2c8,8.3,22.2,8.3,30.2,0l16.1-16.1
		C278,464.4,278,450,269.7,442.1L269.7,442.1z"/>
</g>
</svg>
