<?xml version="1.0" encoding="utf-8"?>
<!-- Generator: Adobe Illustrator 24.3.0, SVG Export Plug-In . SVG Version: 6.00 Build 0)  -->
<svg version="1.1" xmlns="http://www.w3.org/2000/svg" xmlns:xlink="http://www.w3.org/1999/xlink" x="0px" y="0px"
	 viewBox="0 0 200.6 200.1" style="enable-background:new 0 0 200.6 200.1;" xml:space="preserve">
<style type="text/css">
	.st0{fill:#FFFFFF;}
	.st1{fill:#23303F;}
</style>
<g id="Layer_2">
	<rect class="st0" width="200.1" height="200.1"/>
</g>
<g id="Layer_1">
	<g>
		<g>
			<path class="st1" d="M100.1,40.1c-17.9,0-32.5,14.6-32.5,32.5S82.1,105,100.1,105s32.5-14.6,32.5-32.5S118,40.1,100.1,40.1z"/>
		</g>
	</g>
	<g>
		<g>
			<path class="st1" d="M140.5,119.1c-8.9-9-20.7-14-33.2-14H92.8c-12.5,0-24.3,5-33.2,14c-8.9,9-13.7,20.9-13.7,33.4
				c0,2,1.6,3.6,3.6,3.6h101.1c2,0,3.6-1.6,3.6-3.6C154.2,139.9,149.3,128,140.5,119.1z"/>
		</g>
	</g>
</g>
</svg>
