<?xml version="1.0" encoding="utf-8"?>
<!-- Generator: Adobe Illustrator 24.3.0, SVG Export Plug-In . SVG Version: 6.00 Build 0)  -->
<svg version="1.1" id="Layer_1" xmlns="http://www.w3.org/2000/svg" xmlns:xlink="http://www.w3.org/1999/xlink" x="0px" y="0px"
	 viewBox="0 0 204 203.8" style="enable-background:new 0 0 204 203.8;" xml:space="preserve">
<style type="text/css">
	.st0{fill:#5F4B9F;}
	.st1{fill:#F26B6D;}
	.st2{fill:#E3A4CA;}
	.st3{fill:#FFCB58;}
	.st4{fill:#4CBD9A;}
	.st5{fill:#63CCEC;}
</style>
<g>
	<path class="st0" d="M79.8,141.7H62.2c-9.8,0-18-7.9-18-17.7v-4.4c0-7.3-5.9-13.3-13.3-13.3h-4.4V124c0,19.5,16.2,35.4,35.7,35.4
		v18h35.4v-18C97.5,149.7,89.7,141.7,79.8,141.7z"/>
	<path class="st1" d="M159.6,119.6v4.4c0,9.8-7.9,17.7-17.7,17.7h-17.7c-9.8,0-17.7,7.9-17.7,17.7v18h35.4v-18
		c19.5,0,35.7-15.9,35.7-35.4v-17.6h-4.4C165.8,106.4,159.6,112.3,159.6,119.6z"/>
	<circle class="st2" cx="79.8" cy="128.5" r="13.3"/>
	<circle class="st3" cx="124.2" cy="128.5" r="13.3"/>
	<path class="st4" d="M93.2,44.4c2.4,0,4.4-2,4.4-4.4V26.4c-24.8,2.3-44.2,23.6-44.2,49c0,4.6,0.7,9,1.9,13.3h11.4
		c2.4,0,4.4-2,4.4-4.4v-4.4h22.1c2.4,0,4.4-2,4.4-4.4s-2-4.4-4.4-4.4c-7.3,0-13.3-6-13.3-13.3S85.8,44.4,93.2,44.4z"/>
	<path class="st4" d="M137.4,88.7h11.4c1.2-4.2,1.9-8.7,1.9-13.3c0-1.5-0.1-3-0.2-4.4h-21.9c-2.4,0-4.4,2-4.4,4.4s2,4.4,4.4,4.4h4.4
		v4.4C133,86.7,135,88.7,137.4,88.7z"/>
	<path class="st5" d="M124.2,106.4c4.5,0,8.6,1.4,12.1,3.6c3.7-3.6,6.7-7.8,9.1-12.5h-8c-6,0-11-4-12.7-9.4
		c-5.4-1.7-9.4-6.7-9.4-12.7c0-7.3,6-13.3,13.3-13.3h20.2c-5.4-19-22.1-33.9-42.4-35.7V40c0,7.3-6,13.3-13.3,13.3
		c-2.4,0-4.4,2-4.4,4.4s2,4.4,4.4,4.4c7.3,0,13.3,6,13.3,13.3s-6,13.3-13.3,13.3H79c-1.8,5.1-6.7,8.8-12.5,8.8h-7.9
		c2.4,4.6,5.4,8.9,9.1,12.5c3.5-2.3,7.6-3.6,12.1-3.6c10.7,0,19.6,7.6,21.7,17.7c0.2,0,0.3,0,0.4,0c0.2,0,0.3,0,0.4,0
		C104.5,114,113.4,106.4,124.2,106.4z"/>
</g>
</svg>
