<?xml version="1.0" encoding="utf-8"?>
<!-- Generator: Adobe Illustrator 24.3.0, SVG Export Plug-In . SVG Version: 6.00 Build 0)  -->
<svg version="1.1" id="Layer_1" xmlns="http://www.w3.org/2000/svg" xmlns:xlink="http://www.w3.org/1999/xlink" x="0px" y="0px"
	 viewBox="0 0 188.9 192.9" style="enable-background:new 0 0 188.9 192.9;" xml:space="preserve">
<style type="text/css">
	.st0{fill:#E6E6E5;}
</style>
<g>
	<g>
		<path class="st0" d="M94.4,24.5c-22.2,0-40.3,18.1-40.3,40.3s18.1,40.3,40.3,40.3s40.3-18.1,40.3-40.3S116.7,24.5,94.4,24.5z"/>
	</g>
</g>
<g>
	<g>
		<path class="st0" d="M144.6,122.5c-11-11.2-25.7-17.4-41.2-17.4H85.5c-15.5,0-30.2,6.2-41.2,17.4c-11,11.2-17,25.9-17,41.5
			c0,2.5,2,4.5,4.5,4.5h125.5c2.5,0,4.5-2,4.5-4.5C161.7,148.4,155.6,133.7,144.6,122.5z"/>
	</g>
</g>
</svg>
